HIERARCHY
ROOT Hips
{
	OFFSET 0.000000 83.214638 0.000000
	CHANNELS 6 Xposition Yposition Zposition Xrotation Yrotation Zrotation
	JOINT Pelvis
	{
		OFFSET 0.000000 0.000000 0.000000
		CHANNELS 3 Xrotation Yrotation Zrotation
		JOINT LeftUpLeg
		{
			OFFSET 8.479700 -4.795502 -0.379100
			CHANNELS 3 Xrotation Yrotation Zrotation
			JOINT LeftLeg
			{
				OFFSET 0.024144 -32.555107 0.112900
				CHANNELS 3 Xrotation Yrotation Zrotation
				JOINT LeftFoot
				{
					OFFSET -0.024144 -32.638630 -3.012600
					CHANNELS 3 Xrotation Yrotation Zrotation
					JOINT LeftToeBase
					{
						OFFSET 0.970200 -13.225400 11.864200
						CHANNELS 3 Xrotation Yrotation Zrotation
						End Site
						{
							OFFSET 0.000000 12.319262 0.000000
						}
					}
					JOINT LFootTongue
					{
						OFFSET 1.142400 -1.059800 6.665200
						CHANNELS 3 Xrotation Yrotation Zrotation
						End Site
						{
							OFFSET 0.000000 12.319262 0.000000
						}
					}
				}
				JOINT LeftPantLeg
				{
					OFFSET 0.918482 -16.533964 -2.284700
					CHANNELS 3 Xrotation Yrotation Zrotation
					End Site
					{
						OFFSET 0.350399 24.744368 0.000000
					}
				}
			}
		}
		JOINT RightUpLeg
		{
			OFFSET -8.479700 -4.795502 -0.379100
			CHANNELS 3 Xrotation Yrotation Zrotation
			JOINT RightLeg
			{
				OFFSET -0.023144 -32.555092 0.112900
				CHANNELS 3 Xrotation Yrotation Zrotation
				JOINT RightFoot
				{
					OFFSET 0.023144 -32.638641 -3.012700
					CHANNELS 3 Xrotation Yrotation Zrotation
					JOINT RightToeBase
					{
						OFFSET -0.970200 -13.225400 11.864200
						CHANNELS 3 Xrotation Yrotation Zrotation
						End Site
						{
							OFFSET 0.000000 12.319244 0.000000
						}
					}
					JOINT RFootTongue
					{
						OFFSET -1.142200 -1.059800 6.665200
						CHANNELS 3 Xrotation Yrotation Zrotation
						End Site
						{
							OFFSET 0.000000 12.319243 0.000000
						}
					}
				}
				JOINT RightPantLeg
				{
					OFFSET -0.919482 -16.533978 -2.284800
					CHANNELS 3 Xrotation Yrotation Zrotation
					End Site
					{
						OFFSET -0.350400 24.744419 0.000000
					}
				}
			}
		}
	}
	JOINT Spine
	{
		OFFSET 0.000000 7.722000 1.166200
		CHANNELS 3 Xrotation Yrotation Zrotation
		JOINT Spine1
		{
			OFFSET 0.000000 12.024101 0.248800
			CHANNELS 3 Xrotation Yrotation Zrotation
			JOINT Spine2
			{
				OFFSET 0.000000 11.502998 -0.491200
				CHANNELS 3 Xrotation Yrotation Zrotation
				JOINT Neck
				{
					OFFSET 0.000000 18.430702 -3.123100
					CHANNELS 3 Xrotation Yrotation Zrotation
					JOINT Head
					{
						OFFSET 0.000000 9.051102 1.034000
						CHANNELS 3 Xrotation Yrotation Zrotation
						JOINT HairB
						{
							OFFSET 0.208400 24.786102 24.822300
							CHANNELS 3 Xrotation Yrotation Zrotation
							End Site
							{
								OFFSET 0.000000 32.263779 0.000000
							}
						}
						JOINT HairA
						{
							OFFSET -7.081100 24.428299 23.196600
							CHANNELS 3 Xrotation Yrotation Zrotation
							End Site
							{
								OFFSET 0.000000 32.263779 0.000000
							}
						}
						JOINT Hat
						{
							OFFSET 16.728800 15.048294 -15.439601
							CHANNELS 3 Xrotation Yrotation Zrotation
							End Site
							{
								OFFSET 0.000000 32.263779 0.000000
							}
						}
					}
				}
				JOINT LeftShoulder
				{
					OFFSET 6.197800 13.665199 -4.064700
					CHANNELS 3 Xrotation Yrotation Zrotation
					JOINT LeftArm
					{
						OFFSET 7.778100 -0.187103 -1.709300
						CHANNELS 3 Xrotation Yrotation Zrotation
						JOINT LeftForeArm
						{
							OFFSET 22.049376 0.000000 0.000000
							CHANNELS 3 Xrotation Yrotation Zrotation
							JOINT LeftHand
							{
								OFFSET 23.009392 0.000000 0.000000
								CHANNELS 3 Xrotation Yrotation Zrotation
								JOINT LeftHandThumb1
								{
									OFFSET 3.507191 -2.063065 3.133727
									CHANNELS 3 Xrotation Yrotation Zrotation
									JOINT LeftHandThumb2
									{
										OFFSET 3.101337 -1.790558 1.790558
										CHANNELS 3 Xrotation Yrotation Zrotation
										JOINT LeftHandThumb3
										{
											OFFSET 3.058640 -1.765907 1.765906
											CHANNELS 3 Xrotation Yrotation Zrotation
											End Site
											{
												OFFSET -0.415260 3.926476 -0.049563
											}
										}
									}
								}
								JOINT LeftHandIndex1
								{
									OFFSET 11.334419 -0.901459 3.706815
									CHANNELS 3 Xrotation Yrotation Zrotation
									JOINT LeftHandIndex2
									{
										OFFSET 3.283112 0.000000 0.000000
										CHANNELS 3 Xrotation Yrotation Zrotation
										JOINT LeftHandIndex3
										{
											OFFSET 3.323853 0.000000 0.000000
											CHANNELS 3 Xrotation Yrotation Zrotation
											End Site
											{
												OFFSET -1.135597 3.097809 0.402452
											}
										}
									}
								}
								JOINT LeftHandMiddle1
								{
									OFFSET 11.335861 0.000000 0.000000
									CHANNELS 3 Xrotation Yrotation Zrotation
									JOINT LeftHandMiddle2
									{
										OFFSET 3.410492 0.000000 0.000000
										CHANNELS 3 Xrotation Yrotation Zrotation
										JOINT LeftHandMiddle3
										{
											OFFSET 3.312172 0.000000 0.000000
											CHANNELS 3 Xrotation Yrotation Zrotation
											End Site
											{
												OFFSET -1.150200 3.080154 0.400270
											}
										}
									}
								}
								JOINT LeftHandRing1
								{
									OFFSET 11.514786 -0.013176 -3.003090
									CHANNELS 3 Xrotation Yrotation Zrotation
									JOINT LeftHandRing2
									{
										OFFSET 3.053307 0.000000 0.000000
										CHANNELS 3 Xrotation Yrotation Zrotation
										JOINT LeftHandRing3
										{
											OFFSET 3.295807 0.000000 0.000000
											CHANNELS 3 Xrotation Yrotation Zrotation
											End Site
											{
												OFFSET -1.281006 3.013344 0.375733
											}
										}
									}
								}
								JOINT LeftHandPinky1
								{
									OFFSET 10.518692 -0.960396 -5.730441
									CHANNELS 3 Xrotation Yrotation Zrotation
									JOINT LeftHandPinky2
									{
										OFFSET 2.861649 0.000000 0.000000
										CHANNELS 3 Xrotation Yrotation Zrotation
										JOINT LeftHandPinky3
										{
											OFFSET 2.863380 0.000000 0.000000
											CHANNELS 3 Xrotation Yrotation Zrotation
											End Site
											{
												OFFSET -0.843597 2.711159 0.369971
											}
										}
									}
								}
							}
							JOINT LSleeve
							{
								OFFSET 6.676277 -0.344902 -1.011730
								CHANNELS 3 Xrotation Yrotation Zrotation
								End Site
								{
									OFFSET 0.000000 14.885353 0.000000
								}
							}
						}
					}
				}
				JOINT RightShoulder
				{
					OFFSET -6.197800 13.665199 -4.064700
					CHANNELS 3 Xrotation Yrotation Zrotation
					JOINT RightArm
					{
						OFFSET -7.778100 -0.187103 -1.709300
						CHANNELS 3 Xrotation Yrotation Zrotation
						JOINT RightForeArm
						{
							OFFSET -22.049376 0.000000 0.000000
							CHANNELS 3 Xrotation Yrotation Zrotation
							JOINT RightHand
							{
								OFFSET -23.009392 0.000000 0.000000
								CHANNELS 3 Xrotation Yrotation Zrotation
								JOINT RightHandThumb1
								{
									OFFSET -3.507191 -2.063065 3.133727
									CHANNELS 3 Xrotation Yrotation Zrotation
									JOINT RightHandThumb2
									{
										OFFSET -3.101337 -1.790558 1.790558
										CHANNELS 3 Xrotation Yrotation Zrotation
										JOINT RightHandThumb3
										{
											OFFSET -3.058640 -1.765907 1.765906
											CHANNELS 3 Xrotation Yrotation Zrotation
											End Site
											{
												OFFSET 0.415260 3.926476 -0.049563
											}
										}
									}
								}
								JOINT RightHandIndex1
								{
									OFFSET -11.334419 -0.901459 3.706815
									CHANNELS 3 Xrotation Yrotation Zrotation
									JOINT RightHandIndex2
									{
										OFFSET -3.283112 0.000000 0.000000
										CHANNELS 3 Xrotation Yrotation Zrotation
										JOINT RightHandIndex3
										{
											OFFSET -3.323853 0.000000 0.000000
											CHANNELS 3 Xrotation Yrotation Zrotation
											End Site
											{
												OFFSET 1.135597 3.097809 0.402452
											}
										}
									}
								}
								JOINT RightHandMiddle1
								{
									OFFSET -11.335861 0.000000 0.000000
									CHANNELS 3 Xrotation Yrotation Zrotation
									JOINT RightHandMiddle2
									{
										OFFSET -3.410492 0.000000 0.000000
										CHANNELS 3 Xrotation Yrotation Zrotation
										JOINT RightHandMiddle3
										{
											OFFSET -3.312172 0.000000 0.000000
											CHANNELS 3 Xrotation Yrotation Zrotation
											End Site
											{
												OFFSET 1.150200 3.080154 0.400270
											}
										}
									}
								}
								JOINT RightHandRing1
								{
									OFFSET -11.514786 -0.013176 -3.003090
									CHANNELS 3 Xrotation Yrotation Zrotation
									JOINT RightHandRing2
									{
										OFFSET -3.053307 0.000000 0.000000
										CHANNELS 3 Xrotation Yrotation Zrotation
										JOINT RightHandRing3
										{
											OFFSET -3.295807 0.000000 0.000000
											CHANNELS 3 Xrotation Yrotation Zrotation
											End Site
											{
												OFFSET 1.281006 3.013344 0.375733
											}
										}
									}
								}
								JOINT RightHandPinky1
								{
									OFFSET -10.518692 -0.960396 -5.730441
									CHANNELS 3 Xrotation Yrotation Zrotation
									JOINT RightHandPinky2
									{
										OFFSET -2.861649 0.000000 0.000000
										CHANNELS 3 Xrotation Yrotation Zrotation
										JOINT RightHandPinky3
										{
											OFFSET -2.863380 0.000000 0.000000
											CHANNELS 3 Xrotation Yrotation Zrotation
											End Site
											{
												OFFSET 0.843597 2.711159 0.369971
											}
										}
									}
								}
							}
							JOINT RSleeve
							{
								OFFSET -6.676277 -0.344902 -1.011730
								CHANNELS 3 Xrotation Yrotation Zrotation
								End Site
								{
									OFFSET 0.000000 14.885353 0.000000
								}
							}
						}
					}
				}
				JOINT Backpack
				{
					OFFSET 0.000000 -2.471497 36.677502
					CHANNELS 3 Xrotation Yrotation Zrotation
					End Site
					{
						OFFSET 0.000000 20.427315 0.000000
					}
				}
				JOINT Hood
				{
					OFFSET 0.000000 18.754097 -10.431000
					CHANNELS 3 Xrotation Yrotation Zrotation
					JOINT Hood1
					{
						OFFSET 0.000000 -5.011002 -7.685901
						CHANNELS 3 Xrotation Yrotation Zrotation
						End Site
						{
							OFFSET 0.000000 9.175140 0.000000
						}
					}
				}
				JOINT LHoodieString
				{
					OFFSET 5.250500 16.397697 3.089900
					CHANNELS 3 Xrotation Yrotation Zrotation
					JOINT LHoodieString1
					{
						OFFSET 0.257700 -6.364304 3.694600
						CHANNELS 3 Xrotation Yrotation Zrotation
						JOINT LHoodieString2
						{
							OFFSET 0.000000 -9.643799 2.679100
							CHANNELS 3 Xrotation Yrotation Zrotation
							End Site
							{
								OFFSET 0.000000 10.009018 0.000000
							}
						}
					}
				}
				JOINT RHoodieString
				{
					OFFSET -5.250500 16.397697 3.089900
					CHANNELS 3 Xrotation Yrotation Zrotation
					JOINT RHoodieString1
					{
						OFFSET -0.257700 -6.364304 3.694600
						CHANNELS 3 Xrotation Yrotation Zrotation
						JOINT RHoodieString2
						{
							OFFSET 0.000000 -9.643799 2.679100
							CHANNELS 3 Xrotation Yrotation Zrotation
							End Site
							{
								OFFSET 0.000000 10.009018 0.000000
							}
						}
					}
				}
			}
			JOINT LBackpack_Strap
			{
				OFFSET 15.223200 -7.719803 -6.610900
				CHANNELS 3 Xrotation Yrotation Zrotation
				End Site
				{
					OFFSET 0.000000 16.040596 0.000000
				}
			}
			JOINT RBackpack_Strap
			{
				OFFSET -15.223000 -7.719803 -6.610900
				CHANNELS 3 Xrotation Yrotation Zrotation
				End Site
				{
					OFFSET 0.000000 16.040596 0.000000
				}
			}
		}
	}
	JOINT BoyFacialAnim_Joint
	{
		OFFSET 1.000000 -82.208099 -1.550900
		CHANNELS 3 Xrotation Yrotation Zrotation
		End Site
		{
			OFFSET 0.000000 30.012791 0.000000
		}
	}
}
MOTION
Frames: 4
Frame Time: 0.033333
0.051445 82.653923 0.853393 11.029839 1.189908 -3.424112 -0.000000 -0.000000 0.000000 -23.219377 5.724239 4.858829 15.699431 -0.100233 -0.572181 -3.936056 3.522478 0.113496 -0.000000 -0.000000 0.000000 -0.000000 -0.000000 0.000000 0.000000 0.000000 0.000000 -13.016448 -1.412255 3.986162 1.132225 -0.039379 -0.043509 1.148921 -3.588565 -0.840691 0.000000 0.000000 -0.000000 0.000000 0.000000 -0.000000 0.000000 0.000000 0.000000 1.089230 1.791945 0.556802 2.181499 3.500892 0.679366 2.181499 3.500892 0.679366 10.800392 -1.482185 0.898425 -17.093969 -11.927010 2.294314 0.000000 0.000000 0.000000 0.000000 0.000000 0.000000 0.000000 0.000000 0.000000 -1.581891 1.885358 -1.096436 9.251028 -35.953276 -71.150040 0.040553 -27.486314 -0.035504 -21.430989 8.482790 0.125942 -10.557223 14.239382 0.049089 1.712247 -1.152063 2.110325 -0.000000 -0.000000 0.000000 -1.768336 -5.422785 -18.450959 0.046548 0.706638 -13.169264 -0.000001 0.000000 -0.000002 -1.664247 -3.170924 -22.635457 -0.319281 -1.180189 -21.007891 0.000001 -0.000001 0.000000 -3.071220 -0.100237 -21.697809 -0.416184 -2.509427 -23.982672 -0.000000 0.000000 -0.000000 -1.941388 5.719487 -20.027255 -0.498738 -5.445702 -22.463507 0.000001 0.000000 -0.000002 0.000002 0.000000 0.000000 -2.938269 -3.137699 -4.349484 -66.195140 20.186078 30.843929 0.039389 119.960894 -0.079885 -34.968755 -8.935696 6.797310 -44.011564 26.065182 16.830168 -2.422409 -1.568340 1.898868 0.000000 -0.000001 -0.000001 -10.304877 0.110284 24.970822 0.023641 -0.326747 6.870988 0.000001 0.000000 0.000000 -3.772914 0.133281 20.885211 -0.072082 0.637954 10.491797 0.000000 0.000000 0.000001 -1.334490 4.345916 19.807048 -0.738114 1.319104 17.938402 0.000002 0.000001 0.000000 5.168208 6.874852 11.483761 -0.612445 2.903203 16.995802 0.000001 -0.000000 0.000002 -0.000000 -0.000000 -0.000000 0.000003 0.000000 -0.000000 0.000003 0.000000 -0.000000 0.000003 0.000000 -0.000000 0.000003 0.000000 -0.000000 0.000003 0.000000 -0.000000 0.000001 -0.000001 0.000000 0.000003 0.000000 -0.000000 0.000003 0.000000 -0.000000 0.000001 -0.000001 0.000000 0.000000 -0.000000 0.000000 0.000000 -0.000000 0.000000 -0.000000 -0.000000 0.000000 
0.093638 82.634895 0.783505 11.080233 1.246617 -3.558967 -0.000001 0.000000 -0.000000 -23.519411 5.667738 4.964155 16.018814 -0.103528 -0.584768 -4.020689 3.446708 0.159212 -0.000000 -0.000000 -0.000000 -0.000000 -0.000000 -0.000000 0.000000 -0.000000 0.000000 -13.098553 -1.361821 4.083396 1.080877 -0.040017 -0.046885 1.217035 -3.708628 -0.813927 0.000000 0.000000 -0.000000 0.000000 0.000000 -0.000000 -0.000000 -0.000000 0.000000 1.097117 1.797416 0.552614 2.197953 3.508105 0.659045 2.197959 3.508108 0.659044 10.901799 -1.464247 0.850235 -17.041711 -11.978789 2.445911 -0.000001 0.000000 -0.000000 -0.000001 0.000000 -0.000000 -0.000001 0.000000 -0.000000 -1.581206 1.884078 -1.103378 9.404626 -35.839119 -70.930094 0.040383 -27.930979 -0.037458 -21.355847 8.699633 0.296361 -10.555047 14.244553 0.068169 1.707016 -1.152130 2.124912 0.000000 -0.000001 -0.000002 -1.762495 -5.418426 -18.429370 0.046415 0.706487 -13.159463 0.000000 0.000001 -0.000002 -1.661125 -3.167417 -22.623578 -0.319442 -1.180823 -21.016246 0.000002 -0.000001 0.000002 -3.060239 -0.085945 -21.662889 -0.416770 -2.510467 -23.996126 -0.000000 -0.000001 0.000003 -1.947339 5.705228 -20.009024 -0.498818 -5.445778 -22.464163 -0.000000 -0.000000 0.000003 -0.000001 0.000001 -0.000000 -2.942362 -3.126721 -4.369955 -66.229619 20.063556 31.054872 0.039980 119.949036 -0.080368 -34.436772 -8.960479 7.037128 -44.026457 26.080440 16.829774 -2.422493 -1.568204 1.898223 -0.000001 0.000006 -0.000004 -10.293427 0.081006 24.965624 0.024137 -0.330121 6.955756 -0.000000 -0.000001 0.000002 -3.766407 0.130013 21.050807 -0.071663 0.635886 10.455667 -0.000000 0.000001 -0.000002 -1.384290 4.422953 19.960306 -0.739416 1.332272 18.084381 -0.000000 0.000001 -0.000001 4.929917 7.025619 11.980555 -0.615959 2.913019 17.049505 -0.000000 -0.000001 0.000002 0.000001 0.000000 -0.000002 -0.000000 -0.000000 -0.000000 -0.000000 -0.000000 -0.000000 -0.000000 -0.000000 -0.000000 -0.000000 -0.000000 -0.000000 -0.000000 -0.000000 -0.000000 -0.000000 0.000000 -0.000000 -0.000000 -0.000000 -0.000000 -0.000000 -0.000000 -0.000000 -0.000000 0.000000 -0.000000 0.000000 0.000001 -0.000000 0.000000 0.000001 -0.000000 -0.000001 0.000000 -0.000000 
0.137133 82.616081 0.725459 11.106152 1.285600 -3.690983 0.000000 -0.000000 -0.000000 -23.780769 5.616674 5.072195 16.340823 -0.106384 -0.597479 -4.122412 3.390812 0.203173 -0.000000 -0.000000 -0.000000 -0.000000 -0.000000 -0.000000 -0.000000 -0.000001 0.000000 -13.149729 -1.287889 4.181013 1.032809 -0.040189 -0.048942 1.274243 -3.827507 -0.786495 0.000000 0.000000 0.000000 0.000000 0.000000 0.000000 -0.000000 0.000000 -0.000000 1.100528 1.800985 0.547497 2.205463 3.511836 0.637359 2.205465 3.511838 0.637361 10.998671 -1.442776 0.835910 -16.993331 -11.985059 2.590559 0.000000 -0.000000 0.000000 0.000000 -0.000000 0.000000 0.000000 -0.000000 0.000000 -1.585893 1.905107 -1.053288 9.521385 -35.790130 -70.819957 0.040544 -28.313224 -0.039203 -21.378472 8.854414 0.488080 -10.553433 14.247666 0.072388 1.712123 -1.152066 2.110661 -0.000000 -0.000000 0.000001 -1.763495 -5.414945 -18.456054 0.046388 0.706445 -13.157034 0.000000 -0.000000 -0.000002 -1.667173 -3.174201 -22.646631 -0.319040 -1.179321 -20.996533 -0.000000 -0.000001 -0.000002 -3.060961 -0.086316 -21.671999 -0.416581 -2.510139 -23.991898 -0.000001 -0.000000 0.000003 -1.950365 5.695375 -20.020172 -0.498893 -5.445876 -22.465092 -0.000000 -0.000001 0.000001 0.000002 -0.000000 -0.000000 -2.933181 -3.071414 -4.296391 -66.263832 19.972534 31.205779 0.040570 119.940581 -0.081098 -33.985621 -9.009087 7.338637 -44.041835 26.096227 16.829335 -2.422621 -1.568092 1.897579 -0.000003 0.000002 -0.000002 -10.270039 0.032853 24.937490 0.024721 -0.333879 7.050380 -0.000000 0.000001 0.000000 -3.746077 0.105842 21.124786 -0.071502 0.635080 10.441939 -0.000000 0.000001 -0.000002 -1.423622 4.475127 20.071453 -0.740042 1.338197 18.150181 0.000002 0.000000 0.000004 4.716068 7.044524 12.382289 -0.609195 2.922518 17.125506 -0.000000 -0.000001 0.000000 -0.000002 -0.000001 -0.000002 0.000000 0.000001 0.000000 0.000000 0.000001 0.000000 0.000000 0.000001 0.000000 0.000000 0.000001 0.000000 0.000000 0.000001 0.000000 0.000000 0.000001 0.000000 0.000000 0.000001 0.000000 0.000000 0.000001 0.000000 0.000000 0.000001 0.000000 -0.000000 -0.000000 0.000000 -0.000000 -0.000000 0.000000 0.000000 -0.000000 -0.000000 
0.181619 82.598534 0.678348 11.103623 1.302308 -3.809100 -0.000001 -0.000000 -0.000000 -23.988893 5.585280 5.173086 16.644930 -0.108649 -0.609481 -4.231355 3.345077 0.246260 -0.000000 -0.000001 -0.000000 -0.000000 -0.000001 -0.000000 0.000001 -0.000000 -0.000000 -13.179007 -1.193360 4.266814 1.012955 -0.039995 -0.050599 1.310953 -3.944322 -0.755215 -0.000000 -0.000000 0.000000 -0.000000 -0.000000 0.000000 -0.000000 -0.000000 -0.000000 1.101686 1.799529 0.539273 2.208523 3.505916 0.610294 2.208525 3.505918 0.610293 11.074919 -1.416885 0.867765 -17.010837 -11.901656 2.671117 0.000001 0.000000 -0.000000 0.000001 0.000000 -0.000000 0.000001 0.000000 -0.000000 -1.598098 1.955911 -0.924373 9.542382 -35.826883 -70.865432 0.040890 -28.538853 -0.040261 -21.466567 8.915262 0.698404 -10.574866 14.209205 0.055700 1.714773 -1.152027 2.103311 -0.000000 0.000001 -0.000001 -1.764845 -5.417666 -18.451765 0.046379 0.706438 -13.156206 -0.000001 0.000000 -0.000002 -1.663122 -3.166073 -22.652367 -0.319194 -1.179918 -21.004351 -0.000000 -0.000000 0.000000 -3.070138 -0.099311 -21.688608 -0.416477 -2.509940 -23.989419 -0.000001 0.000000 -0.000000 -1.957191 5.677115 -20.014134 -0.499007 -5.445998 -22.466213 -0.000001 -0.000001 0.000005 -0.000002 -0.000000 0.000000 -2.910324 -2.973300 -4.126125 -66.294048 19.947752 31.293290 0.041095 119.939215 -0.081932 -33.655197 -9.088175 7.547780 -44.057695 26.112462 16.828956 -2.422721 -1.568008 1.896884 -0.000004 -0.000002 0.000001 -10.237574 -0.039948 24.922259 0.025806 -0.340966 7.228625 -0.000000 0.000000 0.000002 -3.722935 0.070384 21.188188 -0.071701 0.636006 10.458312 0.000001 0.000000 0.000003 -1.452657 4.539737 20.142646 -0.740286 1.342261 18.196788 0.000000 0.000001 0.000000 4.558280 7.118191 12.694569 -0.614231 2.952671 17.301749 -0.000001 -0.000000 -0.000002 0.000002 -0.000002 -0.000001 -0.000001 0.000000 0.000000 -0.000001 0.000000 0.000000 -0.000001 0.000000 0.000000 -0.000001 0.000000 0.000000 -0.000001 0.000000 0.000000 -0.000001 0.000001 -0.000000 -0.000001 0.000000 0.000000 -0.000001 0.000000 0.000000 -0.000001 0.000001 -0.000000 0.000001 -0.000000 -0.000000 0.000001 -0.000000 -0.000000 -0.000001 -0.000000 -0.000000 
